# xmcd
#
# Track frame offsets:
#	182
#	21310
#	35102
#	52480
#	66082
#	86362
#	103495
#	118095
#	132465
#	149800
#
# Disc length: 2289 seconds
#
# Revision: 2
# Processed by: cddbd v1.5.1PL0 Copyright (c) Steve Scherf et al.
# Submitted via: audiograbber 1.83.01
#
DISCID=a608ef0a
DTITLE=Various Artist - Hot Country Hits
DYEAR=1994
DGENRE=Country
TTITLE0=Black, Clint - We Tell Ourselves
TTITLE1=Tippin, Aaron - You've Got to Stand For Something
TTITLE2=Judds - Give a Little Love
TTITLE3=Anderson, John - Money In the Bank
TTITLE4=Restless Heart - Big Iron Horses
TTITLE5=Brooks and Dunn - Lost and Found
TTITLE6=Williams, Don - Back In My Younger Days
TTITLE7=Mattea, Kathy - Come From the Heart
TTITLE8=Overstreet, Paul - Sowin' Love
TTITLE9=Alabama - Pass It On Down
EXTD=
EXTT0=
EXTT1=
EXTT2=
EXTT3=
EXTT4=
EXTT5=
EXTT6=
EXTT7=
EXTT8=
EXTT9=
PLAYORDER=
